<?xml version="1.0" encoding="UTF-8"?>
<svg width="16px" height="16px" viewBox="0 0 16 16" version="1.1" xmlns="http://www.w3.org/2000/svg" xmlns:xlink="http://www.w3.org/1999/xlink">
    <!-- Generator: Sketch 52.5 (67469) - http://www.bohemiancoding.com/sketch -->
    <title>分组</title>
    <desc>Created with Sketch.</desc>
    <g id="ICON-已上线" stroke="none" stroke-width="1" fill="none" fill-rule="evenodd">
        <g id="账号信息">
            <g id="分组">
                <rect id="Rectangle" fill="#444444" opacity="0" x="0" y="0" width="16" height="16"></rect>
                <path d="M8.0001,9 L8.0001,11 C5.866,11 3.378,11.962 3,12.567 L3,13 L8.0001,13 L8.0001,15 L1,15 L1,12.5 C1,10.172 5.664,9 8,9 L8.0001,9 Z M8.0001,9 L8.0001,8 C5.79,8 4,6.21 4,4 C4,1.79 5.79,0 8,0 C10.21,0 12,1.79 12,4 C12,6.20996667 10.210054,7.999946 8.0001,8 L8.0001,9 Z M8,6 C9.1054305,6 10,5.1054305 10,4 C10,2.8945695 9.1054305,2 8,2 C6.8945695,2 6,2.8945695 6,4 C6,5.1054305 6.8945695,6 8,6 Z M9,9 L14,9 L16,11 L16,16 L9,16 L9,9 Z M11,12.001 L14.001,12.001 L14.001,11 L11,11 L11,12.001 Z M11,14.001 L14.001,14.001 L14.001,13.001 L11,13.001 L11,14.001 Z" id="合并形状" fill="#888888" fill-rule="nonzero"></path>
            </g>
        </g>
    </g>
</svg>