<?xml version="1.0" encoding="UTF-8"?>
<svg width="32px" height="32px" viewBox="0 0 32 32" version="1.1" xmlns="http://www.w3.org/2000/svg" xmlns:xlink="http://www.w3.org/1999/xlink">
    <!-- Generator: Sketch 52.5 (67469) - http://www.bohemiancoding.com/sketch -->
    <title>分组</title>
    <desc>Created with Sketch.</desc>
    <g id="云产品ICON-32" stroke="none" stroke-width="1" fill="none" fill-rule="evenodd">
        <g id="账号中心">
            <g id="分组">
                <rect id="矩形" fill="#D8D8D8" fill-rule="nonzero" opacity="0" x="0" y="0" width="32" height="32"></rect>
                <path d="M28.8471036,18 L30.8678287,18 C29.8900443,25.3387189 23.6061537,31 16,31 C7.71572875,31 1,24.2842712 1,16 C1,7.71572875 7.71572875,1 16,1 C23.6061537,1 29.8900443,6.66128108 30.8678287,14 L28.8471036,14 C27.8850933,7.76981987 22.4995722,3 16,3 C8.82029825,3 3,8.82029825 3,16 C3,23.1797017 8.82029825,29 16,29 C22.4995722,29 27.8850933,24.2301801 28.8471036,18 Z M9,20.5 C9,18.172 13.664,17 16,17 C18.336,17 23,18.172 23,20.5 L23,23 L9,23 L9,20.5 Z M21,20.567 C20.622,19.962 18.134,19 16,19 C13.866,19 11.378,19.962 11,20.567 L11,21 L21,21 L21,20.567 Z M16,16 C13.79,16 12,14.21 12,12 C12,9.79 13.79,8 16,8 C18.21,8 20,9.79 20,12 C20,14.21 18.21,16 16,16 Z M16,14 C17.1054305,14 18,13.1054305 18,12 C18,10.8945695 17.1054305,10 16,10 C14.8945695,10 14,10.8945695 14,12 C14,13.1054305 14.8945695,14 16,14 Z" id="形状" fill="#888888"></path>
            </g>
        </g>
    </g>
</svg>